<svg id="レイヤー_1" data-name="レイヤー 1" xmlns="http://www.w3.org/2000/svg" viewBox="0 0 1920 1080"><defs><style>.cls-1{fill:#f2f2f2;}.cls-2{fill:#8dbbff;}</style></defs><title>rogo</title><path class="cls-1" d="M747.77,737.1V492.19A4.19,4.19,0,0,1,752,488H917.21a4.2,4.2,0,0,1,4.2,4.19v34.47a4.2,4.2,0,0,1-4.2,4.19H803.1a4.2,4.2,0,0,0-4.19,4.19v51.57a4.19,4.19,0,0,0,4.19,4.19h97.36a4.2,4.2,0,0,1,4.19,4.2v34.46a4.19,4.19,0,0,1-4.19,4.19H803.1a4.2,4.2,0,0,0-4.19,4.2V737.1a4.19,4.19,0,0,1-4.19,4.19H752A4.18,4.18,0,0,1,747.77,737.1Z"/><path class="cls-1" d="M953.51,647a99.25,99.25,0,0,1,11.92-46.83,81.73,81.73,0,0,1,33.78-34.55q21.85-11.93,48.81-11.92,41.64,0,68.25,27t26.6,68.33q0,41.64-26.86,69t-67.65,27.39a106.63,106.63,0,0,1-48.12-11.4,78.27,78.27,0,0,1-34.81-33.44Q953.51,678.58,953.51,647Zm49.76,2.59q0,27.3,13,41.81t32,14.51q19,0,31.88-14.51t12.87-42.16q0-27-12.87-41.46t-31.88-14.52q-19,0-32,14.52T1003.27,649.55Z"/><path class="cls-1" d="M1192.26,737.12V492.17a4.18,4.18,0,0,1,4.18-4.17h40.2a4.17,4.17,0,0,1,4.17,4.17v245a4.17,4.17,0,0,1-4.17,4.17h-40.2A4.18,4.18,0,0,1,1192.26,737.12Z"/><path class="cls-1" d="M1316.73,528.67V492.25A4.25,4.25,0,0,1,1321,488h40a4.25,4.25,0,0,1,4.25,4.25v36.42a4.25,4.25,0,0,1-4.25,4.25h-40A4.25,4.25,0,0,1,1316.73,528.67Zm0,208.37v-175a4.25,4.25,0,0,1,4.25-4.25h40a4.25,4.25,0,0,1,4.25,4.25V737a4.25,4.25,0,0,1-4.25,4.25h-40A4.25,4.25,0,0,1,1316.73,737Z"/><path class="cls-1" d="M1420.12,647A99.25,99.25,0,0,1,1432,600.13a81.71,81.71,0,0,1,33.77-34.55q21.86-11.93,48.82-11.92,41.63,0,68.24,27T1609.48,649q0,41.64-26.87,69T1515,745.44a106.57,106.57,0,0,1-48.12-11.4A78.22,78.22,0,0,1,1432,700.6Q1420.11,678.58,1420.12,647Zm49.76,2.59q0,27.3,12.95,41.81t32,14.51q19,0,31.88-14.51t12.87-42.16q0-27-12.87-41.46t-31.88-14.52q-19,0-32,14.52T1469.88,649.55Z"/><path class="cls-1" d="M1650.06,688.19l40-6.09a4.3,4.3,0,0,1,4.77,3q3.43,11.53,11.69,17.91,9.49,7.35,26.61,7.34,18.83,0,28.33-6.9a15.45,15.45,0,0,0,6.4-13,12.77,12.77,0,0,0-3.46-9.16q-3.63-3.45-16.24-6.39-58.76-13-74.47-23.67-21.77-14.87-21.77-41.3,0-23.84,18.83-40.08t58.4-16.24q37.67,0,56,12.26,16.43,11,23.68,31.46a4.35,4.35,0,0,1-3.3,5.72L1768.24,610a4.32,4.32,0,0,1-4.81-2.71,27.41,27.41,0,0,0-10-13q-8.2-5.7-23.42-5.7-19.17,0-27.47,5.35-5.52,3.81-5.52,9.85,0,5.19,4.83,8.81,6.57,4.84,45.36,13.65t54.16,21.6q15.21,13,15.21,36.11,0,25.23-21.08,43.37t-62.37,18.14q-37.5,0-59.35-15.2a69.59,69.59,0,0,1-27.16-36.38A4.36,4.36,0,0,1,1650.06,688.19Z"/><path class="cls-2" d="M369,811.94l-218.59-42a3.4,3.4,0,0,1-3.4-3.4V384.74a3.4,3.4,0,0,1,3.4-3.4l218.59,49a3.4,3.4,0,0,1,3.4,3.4v374.8A3.4,3.4,0,0,1,369,811.94Z"/><path class="cls-2" d="M400.4,811.94l218.59-42a3.4,3.4,0,0,0,3.4-3.4V384.74a3.4,3.4,0,0,0-3.4-3.4l-218.59,49a3.4,3.4,0,0,0-3.4,3.4v374.8A3.4,3.4,0,0,0,400.4,811.94Z"/></svg>